<svg width="24" height="20" viewBox="0 0 24 20" fill="none" xmlns="http://www.w3.org/2000/svg">
<path d="M20.9999 10.4236V8.99963C20.9999 6.61269 20.0517 4.3235 18.3638 2.63567C16.676 0.947845 14.3868 -0.000366211 11.9999 -0.000366211C9.61294 -0.000366211 7.32376 0.947845 5.63593 2.63567C3.9481 4.3235 2.99989 6.61269 2.99989 8.99963V10.4236C1.95105 10.8855 1.09269 11.6936 0.568511 12.7127C0.0443322 13.7318 -0.113849 14.9001 0.120447 16.0219C0.354744 17.1437 0.967297 18.151 1.85556 18.8751C2.74382 19.5992 3.85388 19.9962 4.99989 19.9996C5.53032 19.9996 6.03903 19.7889 6.4141 19.4138C6.78918 19.0388 6.99989 18.5301 6.99989 17.9996V11.9996C6.99989 11.4692 6.78918 10.9605 6.4141 10.5854C6.03903 10.2103 5.53032 9.99963 4.99989 9.99963V8.99963C4.99989 7.14312 5.73739 5.36264 7.05014 4.04989C8.3629 2.73713 10.1434 1.99963 11.9999 1.99963C13.8564 1.99963 15.6369 2.73713 16.9496 4.04989C18.2624 5.36264 18.9999 7.14312 18.9999 8.99963V9.99963C18.4695 9.99963 17.9607 10.2103 17.5857 10.5854C17.2106 10.9605 16.9999 11.4692 16.9999 11.9996V17.9996C16.9999 18.5301 17.2106 19.0388 17.5857 19.4138C17.9607 19.7889 18.4695 19.9996 18.9999 19.9996C20.1459 19.9962 21.256 19.5992 22.1442 18.8751C23.0325 18.151 23.645 17.1437 23.8793 16.0219C24.1136 14.9001 23.9554 13.7318 23.4313 12.7127C22.9071 11.6936 22.0487 10.8855 20.9999 10.4236V10.4236Z" fill="white" fill-opacity="0.5"/>
</svg>
