<svg width="51" height="49" viewBox="0 0 51 49" fill="none" xmlns="http://www.w3.org/2000/svg">
<g filter="url(#filter0_i_6_2)">
<path d="M29.9046 37.9836C25.8477 36.4918 21.675 36.2623 17.85 37.2951C15.1841 37.9836 12.6341 39.3607 10.3159 41.082L8.69318 42.459L8.22955 42.918L9.27273 43.8361C9.38864 43.8361 9.38865 43.9508 9.50456 44.0656C9.73638 44.2951 9.96821 44.4098 10.3159 44.6394L11.0114 45.0984L11.7068 44.5246C11.8227 44.4098 12.0546 44.1803 12.2864 44.0656C14.3727 42.3443 16.6909 41.1967 19.125 40.623C22.2545 39.8197 25.6159 39.9344 28.9773 41.1967C31.7591 42.2295 37.4387 43.4918 44.2773 40.623L44.5091 40.5082L44.8568 40.1639C44.8568 40.0492 44.9728 40.0492 45.0887 39.9344C45.6682 39.2459 46.2477 38.5574 46.7114 37.7541L49.0296 34.1967L45.3205 36.2623C39.8727 39.2459 34.8887 39.8197 29.9046 37.9836Z" fill="#9433DE"/>
<path d="M16.4591 3.67211L16.8068 3.78687C18.3136 4.36064 20.6318 4.93441 23.5296 4.93441C26.5432 4.93441 29.4409 4.24588 32.3387 3.09834L35.9318 1.37703L33.4978 0.573771C32.8023 0.344262 32.1068 0.114754 31.2955 0H30.9477L30.6 0.114726C30.2523 0.22948 29.9045 0.459017 29.5568 0.573771C26.0795 1.83607 22.6023 2.06557 19.2409 1.14754C18.8932 1.03279 18.5455 0.918012 18.1977 0.803258L17.85 0.688497L17.5023 0.803258C16.8068 1.03277 16.1114 1.26229 15.4159 1.60655L12.75 2.75409L15.5318 3.55735C15.7637 3.4426 16.1114 3.55736 16.4591 3.67211Z" fill="#9433DE"/>
<path d="M14.025 25.5902C17.1546 24.7869 20.5159 24.9016 23.8773 26.1639C27.5864 27.541 37.0909 29.4918 47.7546 19.9672L49.4932 18.2459L49.6091 18.1311L50.0727 17.6721L49.8409 17.0984C49.725 16.6393 49.4932 16.0656 49.2614 15.4918L48.6818 13.8852L47.5227 15.0328C47.4068 15.2623 47.175 15.377 46.9432 15.6065C41.8432 20.7705 33.9614 26.0492 24.9205 22.8361C20.8636 21.3443 16.6909 21.1147 12.8659 22.1475C9.15682 23.1803 5.91136 25.1311 2.89773 27.8852V27.7705L1.15909 29.6066C1.15909 29.7213 1.0432 29.7213 0.927293 29.8361L0.579544 30.1803L0.69546 30.6393C0.811369 31.2131 1.04318 31.7869 1.15909 32.3606L1.85455 34.1967L3.01364 32.7049C3.12955 32.4754 3.36136 32.3607 3.47727 32.1312C5.91136 29.9508 9.27273 26.8525 14.025 25.5902Z" fill="#5C49C8"/>
<path d="M2.78185 23.5246C5.44776 20.7705 8.46137 19.0492 11.7068 18.1311C14.8364 17.3279 18.1977 17.4426 21.5591 18.7049C31.9909 22.4918 41.0318 16.2951 44.9727 12.9672L46.4796 11.4754L47.0591 11.0164L46.5955 10.3279C46.2477 9.98362 46.0159 9.52459 45.6682 9.06558L44.9727 8.14752L44.1614 8.95081C44.0455 9.06557 43.8136 9.29507 43.6977 9.40982C38.8296 14 31.2955 18.7049 22.7182 15.4918C18.6614 14 14.4887 13.7705 10.6637 14.8033C8.22956 15.4918 5.91137 16.6393 3.59319 18.1311L1.15909 20.082C0.927273 20.3115 0.811364 20.4262 0.579545 20.6558L0.347748 20.8852V21.2295C0.231839 22.0328 0.231825 22.8361 0.115916 23.5246L0 26.3935L1.97047 24.3279C2.20229 24.0984 2.43412 23.7541 2.78185 23.5246Z" fill="#4465B9"/>
<path d="M33.2659 45.7869L33.0341 46.4754L33.2659 45.7869C32.9182 45.6722 32.6864 45.5574 32.3387 45.4426C28.2818 43.9508 24.1091 43.7213 20.2841 44.7541C19.4727 44.9836 18.6614 45.2131 17.85 45.5574L15.0682 46.8197L14.3727 47.1639L16.6909 47.9672C17.3864 48.1967 18.0818 48.4263 18.7773 48.6558L19.125 48.7705L19.4727 48.6558C19.8205 48.541 20.1682 48.3115 20.5159 48.3115C20.7477 48.3115 20.9796 48.1967 21.2114 48.082C23.9932 47.3935 27.0068 47.3935 30.2523 48.4262C30.6 48.541 30.8318 48.6558 31.1796 48.7705L31.7591 49L32.1068 48.8852C32.9182 48.6557 33.8455 48.4263 34.5409 48.082L37.7864 46.9344L34.425 46.1312C34.0773 46.0164 33.6136 45.9017 33.2659 45.7869Z" fill="#B935D3"/>
<path d="M51 22.0328L49.2614 23.7541C49.0295 23.9836 48.7977 24.2131 48.5659 24.4426C43.8137 28.918 36.1637 33.7377 27.5864 30.5246C23.5296 29.0328 19.3568 28.8033 15.5318 29.8361C11.9387 30.8689 8.69317 32.7049 5.79545 35.459L4.28864 37.0656L3.82501 37.6393L4.28864 38.3279C4.63637 38.7869 4.8682 39.1312 5.10002 39.5902L5.79545 40.623L6.60682 39.5902C6.72273 39.4754 6.95454 39.2459 7.07045 39.1311C9.85227 36.1475 12.8659 34.3115 16.3432 33.3934C19.4727 32.5901 22.8341 32.7049 26.1955 33.9672C29.0932 35 32.1068 35.3443 35.1205 35C40.4523 34.4262 45.7841 31.4426 49.725 28.1148C49.9568 27.8853 50.1886 27.7705 50.4204 27.541L50.7682 27.1967V26.8525C50.7682 26.1639 50.8841 25.3607 50.8841 24.6721L51 22.0328Z" fill="#6D44B9"/>
<path d="M6.95454 11.4754C7.64999 11.1311 8.46138 10.9016 9.15684 10.6721C12.2864 9.86883 15.6477 9.98358 19.0091 11.2459C21.2114 12.0492 23.4136 12.3934 25.8477 12.3934C30.7159 12.3934 35.5841 10.6721 40.1045 7.34425L41.8432 5.96718L42.4227 5.50817L41.3796 4.70488C41.0318 4.36062 40.5682 4.01637 40.1045 3.78686L39.4091 3.32785L38.8295 3.78686C38.5977 3.90161 38.4818 4.13112 38.25 4.24587C32.1068 8.83604 25.9637 10.0983 20.1682 7.91802C15.9955 6.42621 11.8227 6.08195 7.65 7.34425C7.30227 7.459 6.95454 7.57374 6.49091 7.68849L6.25911 7.80325L5.91136 8.1475C5.91136 8.26226 5.79547 8.26227 5.67956 8.37703C5.21593 9.06555 4.63636 9.63934 4.17272 10.3279L1.97046 13.6557L5.56365 11.8196C6.14319 11.8196 6.60681 11.5902 6.95454 11.4754Z" fill="#3F91C9"/>
<path d="M16.4591 3.67211L16.8068 3.78687C18.3136 4.36064 20.6318 4.93441 23.5296 4.93441C26.5432 4.93441 29.4409 4.24588 32.3387 3.09834L35.9318 1.37703L33.4978 0.573771C32.8023 0.344262 32.1068 0.114754 31.2955 0H30.9477L30.6 0.114726C30.2523 0.22948 29.9045 0.459017 29.5568 0.573771C26.0795 1.83607 22.6023 2.06557 19.2409 1.14754C18.8932 1.03279 18.5455 0.918012 18.1977 0.803258L17.85 0.688497L17.5023 0.803258C16.8068 1.03277 16.1114 1.26229 15.4159 1.60655L12.75 2.75409L15.5318 3.55735C15.7637 3.4426 16.1114 3.55736 16.4591 3.67211Z" fill="#3BCFCC"/>
</g>
<defs>
<filter id="filter0_i_6_2" x="0" y="0" width="51" height="53" filterUnits="userSpaceOnUse" color-interpolation-filters="sRGB">
<feFlood flood-opacity="0" result="BackgroundImageFix"/>
<feBlend mode="normal" in="SourceGraphic" in2="BackgroundImageFix" result="shape"/>
<feColorMatrix in="SourceAlpha" type="matrix" values="0 0 0 0 0 0 0 0 0 0 0 0 0 0 0 0 0 0 127 0" result="hardAlpha"/>
<feOffset dy="4"/>
<feGaussianBlur stdDeviation="2"/>
<feComposite in2="hardAlpha" operator="arithmetic" k2="-1" k3="1"/>
<feColorMatrix type="matrix" values="0 0 0 0 0 0 0 0 0 0 0 0 0 0 0 0 0 0 0.25 0"/>
<feBlend mode="normal" in2="shape" result="effect1_innerShadow_6_2"/>
</filter>
</defs>
</svg>
