<svg width="9" height="16" viewBox="0 0 9 16" fill="none" xmlns="http://www.w3.org/2000/svg">
<path d="M7.75004 5.525L3.16405 0.939005C2.88265 0.657743 2.50105 0.499784 2.1032 0.499878C1.70534 0.499972 1.32381 0.65811 1.04255 0.939505C0.761289 1.2209 0.60333 1.6025 0.603424 2.00036C0.603518 2.39822 0.761657 2.77974 1.04305 3.061L5.62904 7.64601C5.67561 7.69245 5.71255 7.74763 5.73776 7.80837C5.76296 7.86912 5.77594 7.93424 5.77594 8.00001C5.77594 8.06577 5.76296 8.13089 5.73776 8.19164C5.71255 8.25238 5.67561 8.30756 5.62904 8.35401L1.04305 12.939C0.761657 13.2203 0.603518 13.6018 0.603424 13.9997C0.60333 14.3975 0.761289 14.7791 1.04255 15.0605C1.32381 15.3419 1.70534 15.5 2.1032 15.5001C2.50105 15.5002 2.88265 15.3423 3.16405 15.061L7.75004 10.475C8.40527 9.81797 8.77322 8.92792 8.77322 8.00001C8.77322 7.07209 8.40527 6.18204 7.75004 5.525V5.525Z" fill="#00BCD4"/>
</svg>
